<svg width="121" height="29" viewBox="0 0 121 29" fill="none" xmlns="http://www.w3.org/2000/svg">
<path d="M23.8042 22.37C22.8175 22.37 21.8432 22.222 20.8812 21.926C19.9438 21.6053 18.8708 20.8407 17.6622 19.632L14.9982 16.968C13.9128 15.858 12.7165 15.044 11.4092 14.526C10.1265 14.008 8.5108 13.749 6.56213 13.749H5.41513V22H0.531133V3.20397L0.161133 0.20697H16.5522C18.1308 0.20697 19.3642 0.416637 20.2522 0.835971C21.1648 1.2553 21.8308 1.8103 22.2502 2.50097C22.6942 3.16697 22.9778 3.8823 23.1012 4.64697C23.2245 5.41164 23.2862 6.1393 23.2862 6.82997V7.53297C23.2862 8.07564 23.2122 8.67997 23.0642 9.34597C22.9162 10.012 22.6325 10.6657 22.2132 11.307C21.7938 11.9483 21.1895 12.491 20.4002 12.935C19.6355 13.379 18.6242 13.638 17.3662 13.712C17.6868 13.8847 18.0938 14.156 18.5872 14.526C19.0805 14.8713 19.5862 15.2537 20.1042 15.673C20.6468 16.0923 21.1402 16.4747 21.5842 16.82C22.0282 17.1653 22.3735 17.412 22.6202 17.56C23.5082 18.078 24.2975 18.4357 24.9882 18.633C25.6788 18.8303 26.2462 18.9413 26.6902 18.966C27.1342 18.9907 27.3932 19.003 27.4672 19.003L26.7272 22C26.5052 22.074 26.1352 22.148 25.6172 22.222C25.0992 22.3207 24.4948 22.37 23.8042 22.37ZM10.9652 10.382C11.9025 10.382 12.7412 10.3697 13.4812 10.345C14.2212 10.2957 14.8872 10.2463 15.4792 10.197C16.5645 10.0737 17.3168 9.77764 17.7362 9.30897C18.1802 8.81564 18.4022 8.18664 18.4022 7.42197V6.57097C18.4022 5.78164 18.1925 5.11564 17.7732 4.57297C17.3538 4.0303 16.6015 3.75897 15.5162 3.75897H5.41513V10.197C6.50047 10.271 7.49947 10.3203 8.41213 10.345C9.3248 10.3697 10.1758 10.382 10.9652 10.382ZM34.5758 22C33.3425 22 32.3928 21.8397 31.7268 21.519C31.0608 21.1983 30.5798 20.7913 30.2838 20.298C30.0125 19.8047 29.8398 19.2867 29.7658 18.744C29.7165 18.2013 29.6918 17.708 29.6918 17.264V10.16C29.6918 9.78997 29.7165 9.34597 29.7658 8.82797C29.8398 8.2853 30.0125 7.75497 30.2838 7.23697C30.5798 6.71897 31.0608 6.2873 31.7268 5.94197C32.4175 5.59664 33.3671 5.42397 34.5758 5.42397H42.5308C44.1588 5.42397 45.4291 5.5843 46.3418 5.90497C47.2791 6.20097 47.9328 6.6943 48.3028 7.38497C48.6975 8.07564 48.8948 9.00064 48.8948 10.16V15.636H42.4198C40.1998 15.636 38.3868 15.5867 36.9808 15.488C35.5995 15.3893 34.6745 15.3277 34.2058 15.303V17.338C34.1811 18.3247 34.7731 18.818 35.9818 18.818H37.8688C39.2008 18.818 40.4958 18.8057 41.7538 18.781C43.0365 18.7317 44.2081 18.6823 45.2688 18.633C46.3295 18.559 47.1805 18.4973 47.8218 18.448L49.3018 20.853C49.3018 21.6177 46.8721 22 42.0128 22H34.5758ZM34.2058 12.454H44.3808V10.086C44.3808 9.59264 44.3191 9.2473 44.1958 9.04997C44.0971 8.85264 43.7765 8.7293 43.2338 8.67997C42.6911 8.63064 41.7661 8.60597 40.4588 8.60597H35.9818C34.7978 8.60597 34.2058 9.0993 34.2058 10.086V12.454ZM53.0061 22V5.42397H56.0401L57.5201 6.16397C58.5561 5.96664 59.8018 5.79397 61.2571 5.64597C62.7125 5.49797 64.3775 5.42397 66.2521 5.42397H68.1021C69.3355 5.42397 70.2851 5.59664 70.9511 5.94197C71.6171 6.2873 72.0858 6.71897 72.3571 7.23697C72.6531 7.75497 72.8258 8.2853 72.8751 8.82797C72.9491 9.34597 72.9861 9.78997 72.9861 10.16V22H68.4721V10.086C68.4721 9.0993 67.8801 8.60597 66.6961 8.60597H58.6301C58.1615 8.60597 57.8531 8.6553 57.7051 8.75397C57.5818 8.82797 57.5201 9.04997 57.5201 9.41997V22H53.0061ZM89.4243 28.512C86.7109 28.512 84.5033 28.4873 82.8013 28.438C81.0993 28.3887 79.7919 28.3147 78.8793 28.216C77.9666 28.1173 77.3376 27.994 76.9923 27.846C76.6716 27.698 76.5113 27.5377 76.5113 27.365L77.6213 24.59C78.0159 24.7133 78.7066 24.8613 79.6933 25.034C80.7046 25.2313 81.9873 25.33 83.5413 25.33H89.8683C90.7809 25.33 91.4223 25.1943 91.7923 24.923C92.1869 24.6517 92.3843 24.1707 92.3843 23.48V21.26C91.3236 21.4573 90.0656 21.63 88.6103 21.778C87.1796 21.926 85.5269 22 83.6523 22H81.8023C80.5689 22 79.6193 21.8397 78.9533 21.519C78.2873 21.1983 77.8063 20.7913 77.5103 20.298C77.2389 19.8047 77.0663 19.2867 76.9923 18.744C76.9429 18.2013 76.9183 17.708 76.9183 17.264V10.16C76.9183 9.78997 76.9429 9.34597 76.9923 8.82797C77.0663 8.2853 77.2389 7.75497 77.5103 7.23697C77.8063 6.71897 78.2873 6.2873 78.9533 5.94197C79.6439 5.59664 80.5936 5.42397 81.8023 5.42397H83.6893C86.2793 5.42397 88.2896 5.4733 89.7203 5.57197C91.1756 5.67064 92.2363 5.78164 92.9023 5.90497L93.8643 5.42397H96.8983V23.776C96.8983 24.22 96.8243 24.7133 96.6763 25.256C96.5529 25.7987 96.2939 26.3167 95.8993 26.81C95.5046 27.3033 94.9373 27.7103 94.1973 28.031C93.4573 28.3517 92.4829 28.512 91.2743 28.512H89.4243ZM83.2083 18.818H91.2373C91.8046 18.818 92.1376 18.7687 92.2363 18.67C92.3349 18.5713 92.3843 18.2507 92.3843 17.708V8.86497C91.5456 8.81564 90.4849 8.7663 89.2023 8.71697C87.9196 8.64297 86.5506 8.60597 85.0953 8.60597H83.2083C82.0243 8.60597 81.4323 9.0993 81.4323 10.086V17.338C81.4076 18.3247 81.9996 18.818 83.2083 18.818ZM105.866 22C104.213 22 102.98 21.667 102.166 21.001C101.377 20.335 100.982 19.2497 100.982 17.745V10.16C100.982 9.78997 101.007 9.34597 101.056 8.82797C101.13 8.2853 101.303 7.75497 101.574 7.23697C101.87 6.71897 102.351 6.2873 103.017 5.94197C103.708 5.59664 104.657 5.42397 105.866 5.42397H116.078C117.311 5.42397 118.261 5.59664 118.927 5.94197C119.593 6.2873 120.062 6.71897 120.333 7.23697C120.629 7.75497 120.802 8.2853 120.851 8.82797C120.925 9.34597 120.962 9.78997 120.962 10.16V17.264C120.962 17.708 120.925 18.2013 120.851 18.744C120.802 19.2867 120.629 19.8047 120.333 20.298C120.037 20.7913 119.556 21.1983 118.89 21.519C118.224 21.8397 117.287 22 116.078 22H105.866ZM107.272 18.818H114.672C115.881 18.818 116.485 18.3247 116.485 17.338V10.086C116.485 9.0993 115.881 8.60597 114.672 8.60597H107.272C106.088 8.60597 105.496 9.0993 105.496 10.086V17.338C105.496 18.3247 106.088 18.818 107.272 18.818Z" fill="#0B101C"/>
</svg>
